<?xml version="1.0" encoding="UTF-8"?>
<svg width="418px" height="481px" viewBox="0 0 418 481" version="1.1" xmlns="http://www.w3.org/2000/svg" xmlns:xlink="http://www.w3.org/1999/xlink">
    <!-- Generator: Sketch 54.1 (76490) - https://sketchapp.com -->
    <title>footsteps</title>
    <desc>Created with Sketch.</desc>
    <g id="Page-1" stroke="none" stroke-width="1" fill="none" fill-rule="evenodd">
        <g id="footsteps" fill="#FFFFFF" fill-rule="nonzero">
            <path d="M86.83,346.27 C64.22,346.27 45.83,338.1 32.04,321.88 C18.25,305.66 9.2,281.59 3.93,246.57 C-3.83,194.96 3.87,151.46 25.61,124.09 C38.41,107.97 55.21,98.65 74.19,97.15 C90.44,95.85 114.73,102.44 138.19,141.15 C152.88,165.39 164.05,197.59 168.84,229.49 L168.84,229.49 C174.63,268 170.32,296.35 155.66,316.14 C144.02,331.86 126.12,341.6 102.45,345.14 C97.2781368,345.899639 92.0573479,346.277327 86.83,346.27 Z" id="Path"></path>
            <path d="M126,481 C112.79,481 99.4,476.77 87.34,468.64 C69.9372866,456.847552 57.8914274,438.663767 53.82,418.04 C50.97,403.38 52.68,391.73 59.04,382.4 C69.37,367.25 87.91,363.84 107.53,360.22 C109.6,359.84 111.7,359.46 113.83,359.05 C118.35,358.19 122.97,357.05 127.45,355.94 C144.23,351.8 161.59,347.51 175.92,357.69 C185.51,364.49 190.92,376.05 192.54,393.01 L192.54,393.01 C194.38,412.58 190.18,432.11 180.71,448.01 C170.52,465.12 155.24,476.43 137.71,479.87 C133.85219,480.623062 129.930624,481.001489 126,481 L126,481 Z" id="Path"></path>
            <path d="M331.17,250.27 C325.947639,250.252343 320.733622,249.851265 315.57,249.07 C291.91,245.57 274.01,235.82 262.37,220.07 C247.71,200.28 243.37,171.94 249.19,133.42 C253.98,101.49 265.12,69.32 279.74,45.17 C303.08,6.6 327.4,-0.09 343.74,1.09 C362.66,2.47 379.43,11.66 392.25,27.69 C414.14,55.06 421.9,98.69 414.11,150.53 C408.84,185.53 399.91,209.48 386,225.84 C372.09,242.2 353.78,250.27 331.17,250.27 Z" id="Path"></path>
            <path d="M292,385 C288.0794,384.999558 284.167973,384.621141 280.32,383.87 C262.76,380.43 247.48,369.12 237.32,352.01 C227.85,336.11 223.65,316.58 225.49,297.01 L225.49,297.01 C227.09,280.01 232.49,268.49 242.11,261.68 C256.44,251.51 273.8,255.79 290.58,259.94 C295.06,261.04 299.68,262.18 304.2,263.05 L310.49,264.22 C330.12,267.83 348.66,271.22 358.99,286.39 C365.35,295.72 367.06,307.39 364.21,322.03 C360.142032,342.65785 348.095677,360.845977 330.69,372.64 C318.56,380.78 305.17,385 292,385 Z" id="Path"></path>
        </g>
    </g>
</svg>